<?xml version="1.0" encoding="UTF-8"?>
<svg xmlns="http://www.w3.org/2000/svg" viewBox="0 0 378.16 304.86">
  <defs>
    <style>
      .cls-1, .cls-2, .cls-3, .cls-4 {
        fill: #e2efdd;
        stroke-miterlimit: 10;
      }

      .cls-1, .cls-3 {
        stroke: #fff;
        stroke-width: 23px;
      }

      .cls-1, .cls-4 {
        opacity: .9;
      }

      .cls-5 {
        opacity: .1;
      }

      .cls-5, .cls-6, .cls-7, .cls-8, .cls-9, .cls-10, .cls-11, .cls-12 {
        stroke-width: 0px;
      }

      .cls-6 {
        opacity: .2;
      }

      .cls-6, .cls-11 {
        fill: #fff;
      }

      .cls-2, .cls-4 {
        stroke: #5c7a3a;
        stroke-width: 16px;
      }

      .cls-7 {
        fill: #263238;
      }

      .cls-8 {
        fill: #455a64;
      }

      .cls-9 {
        fill: #37474f;
      }

      .cls-10 {
        fill: #e0e0e0;
      }

      .cls-12 {
        fill: orange;
      }
    </style>
  </defs>
  <g id="Circle_2" data-name="Circle 2">
    <g id="Circle">
      <g id="Circle-2" data-name="Circle">
        <circle class="cls-3" cx="184.72" cy="135.72" r="121.86"/>
        <circle class="cls-1" cx="184.72" cy="135.72" r="121.86"/>
      </g>
    </g>
    <g id="Circle-3" data-name="Circle">
      <g id="Circle-4" data-name="Circle">
        <circle class="cls-2" cx="184.72" cy="135.4" r="121.86"/>
        <circle class="cls-4" cx="184.72" cy="135.4" r="121.86"/>
      </g>
    </g>
  </g>
  <g id="Bird_2" data-name="Bird 2">
    <g id="Bird">
      <g>
        <path class="cls-7" d="m73.06,41.5c-13.32-5.55-21.55-9.44-37.69-17.84-7.14-3.71-14.15-7.1-20.86-10.8-5.64-3.12-5.64.61,3.87,8.74,11.14,9.53,24.18,16.58,39.69,25.65-12.74-4.62-26.9-11.15-36.32-16.41-6.46-3.61-7.41.87,2.55,8.53,9.96,7.66,23.37,14.61,23.37,14.61-12.58-4.34-18.48-7.21-20.62-6.74-1.53.34.99,8.94,34.53,22.39-11.56-1.88-16.33-1.64-12.31,1.71,3.08,2.57,20.06,12.72,43.86,19.29-4.94-.31-14.35-1.97-22.7-3.59-8.18-1.59-4.91,2.84,4.59,6.31,8.36,3.05,22.46,6.23,34.47,7.83-5.8.21-10.99-.11-16.88-.08-7.56.03-6.13,4.4,8.2,6.98,14.33,2.58,26.94,2.53,26.94,2.53-8.37,1.27-14.65,1.14-18.25,1.32-5.46.27-2.91,4.47,9.37,5.48,16.13,1.32,28.68-1.21,28.68-1.21-4.49,2.23-14.24,4.33-18.9,5.24-5.95,1.16-1.57,4.02,8.68,3.23s14.67-2.78,14.67-2.78c0,0-5.32,2.98-8.38,4.17-3.06,1.2,3.14,4.08,14.37-1.69,11.24-5.76,15.86-14.63,15.86-14.63L73.06,41.5Z"/>
        <path class="cls-9" d="m105.34,53c-10.73-4.53-22.83-10.12-29.71-12.91-6.88-2.79-.93,15.27,23.29,24.58-5.6,1.74.54,14.07,22.89,18.19-6.24,1.37-3.01,9.4,11.59,12.77-5.28,1.95-1.97,9.89,14.75,12.39-2.31,4.21,12.22,9.53,25.71,1.74l-68.52-56.75Z"/>
        <path class="cls-8" d="m180.79,102.02c-5.91,1.53-9.16-.35-12.41-7.2-3.25-6.85-2.62-10.92-12.11-16.94-9.48-6.02-43.9-23.2-49.27-25.65-5.37-2.45,2.37,16.05,20.73,24.11-3.67,3.67.55,11.9,18.51,16.48-6.56,3.79,2.54,17.24,27.6,16.94l6.94-7.73Z"/>
        <path class="cls-9" d="m152.65,121.41c-.05.03-.03.17.04.17.55-.06,1.09-.31,1.61-.5.57-.21,1.13-.43,1.69-.66,1.13-.47,2.26-.94,3.33-1.54.09-.05.06-.29-.06-.24-1.11.41-2.19.91-3.28,1.37-.54.23-1.09.45-1.63.67-.57.23-1.18.42-1.7.74ZM79.67,54.57c-3.16-.94-6.33-1.85-9.46-2.88-1.82-.6-3.63-1.25-5.43-1.92-.96-.36-1.91-.72-2.86-1.09-.89-.35-1.84-.82-2.8-.95-.15-.02-.2.26-.11.34.72.63,1.79.96,2.66,1.31.89.36,1.78.72,2.68,1.06,1.8.68,3.61,1.32,5.44,1.92,3.22,1.06,6.49,2.02,9.85,2.5.12.02.13-.26.03-.29Zm48.63,56.02s0,.07.02.07c1.52-.06,3.04-.26,4.55-.42,1.43-.15,2.84-.29,4.26-.52,2.44-.4,4.88-.84,7.21-1.67.08-.03.05-.25-.04-.23-2.35.57-4.74,1.02-7.12,1.41-1.48.24-2.96.53-4.44.75-1.48.22-2.96.36-4.44.6Zm19.95,5.17c-.07.03-.03.2.04.19.51-.06,1.02-.21,1.52-.35.56-.16,1.11-.33,1.66-.51,1.01-.34,2.01-.71,2.98-1.15.08-.04.04-.24-.06-.21-.95.31-1.91.61-2.87.92-1.09.35-2.24.65-3.28,1.11Zm-37.28-14.59c1.44.31,3.01.16,4.48.15,1.58-.01,3.17-.05,4.75-.1,3.17-.1,6.41-.17,9.54-.71.11-.02.1-.25-.01-.26-3.06-.05-6.14.26-9.2.37-1.63.06-3.26.09-4.89.11-1.55.01-3.15-.12-4.68.12-.13.02-.1.29.01.32Zm-61-45.9c1.32.68,2.81,1.11,4.21,1.6,1.61.56,3.23,1.1,4.86,1.63,6.5,2.11,13.06,4.07,19.68,5.8,2.95.77,5.91,1.5,8.89,2.12,2.27.47,4.64,1,6.97.98.19,0,.3-.44.09-.47-2.74-.47-5.48-.91-8.19-1.51-6.4-1.41-12.72-3.2-19-5.08-3.14-.94-6.27-1.92-9.39-2.94-1.4-.46-2.79-.92-4.19-1.38-1.26-.42-2.51-.9-3.8-1.21-.23-.06-.33.37-.14.47Zm12.58,14.66c1.71.85,3.51,1.44,5.32,2.03,1.74.57,3.49,1.11,5.25,1.64,11.1,3.3,22.44,5.41,34.02,5.93.14,0,.16-.31.01-.32-3.14-.28-6.28-.62-9.4-1.02-5.5-.7-10.95-1.7-16.33-3.02-2.96-.73-5.9-1.54-8.82-2.43-3.33-1.01-6.62-2.32-10.02-3.06-.13-.03-.13.21-.03.26Zm32.05,21c4.33.69,8.64,1.28,13.02,1.59,2.25.16,4.51.26,6.77.25,2.28,0,4.69-.02,6.92-.56.14-.03.2-.39.02-.39-2.24-.01-4.48.24-6.72.25-2.34,0-4.68-.11-7.01-.27-4.35-.3-8.67-.81-13.02-1.08-.08,0-.07.19,0,.2Z"/>
      </g>
      <g>
        <g>
          <path class="cls-10" d="m244.99,87.99c-.78,3.69-6.22,9.58-10.78,10.75v-7.99s10.78-2.76,10.78-2.76Z"/>
          <path class="cls-5" d="m244.99,87.99c-.78,3.69-6.22,9.58-10.78,10.75v-7.99s10.78-2.76,10.78-2.76Z"/>
        </g>
        <path class="cls-10" d="m237.72,80.63c7.19.48,10.8.95,11.74,2.12.94,1.17-8.14,9.06-14.8,11.77-3.29-4.25-.37-11.47,3.06-13.89Z"/>
      </g>
      <g>
        <path class="cls-12" d="m227.24,119.83c.05,1.86.02,3.48-.11,4.94,0-.01.01-.03.01-.04,1.63-4.61,4.19-9.92,5.49-15.76,1.31-5.83,1.44-11.44,1.99-13.85.55-2.41,1.75-6.1,3.51-8.02-2.63,2.25-9.64.25-14.01,2.51-4.39,2.25-7.25,5.88-4.88,12,2.38,6.14,7.75,9.95,8.01,18.23Z"/>
        <path class="cls-6" d="m225.99,115.27c.05,1.86.02,3.48-.11,4.94,0-.01.01-.03.01-.04,1.63-4.61,4.19-9.92,5.49-15.76,1.31-5.83,1.44-11.44,1.99-13.85.55-2.41,1.75-6.1,3.51-8.02-2.63,2.25-9.64.25-14.01,2.51-4.39,2.25-7.25,5.88-4.88,12,2.38,6.14,7.75,9.95,8.01,18.23Z"/>
      </g>
      <path class="cls-11" d="m140.6,184.9c6.12-3.53,37.43-13.11,46.51-15.74,9.08-2.63,21.76-8.74,30.07-20.72,3.85-5.56,5.96-10.15,7.29-13.93,1.06-3.04,1.61-5.56,2.14-7.65.58-2.27.89-4.59.84-6.93,0-.12,0-.24,0-.37-.25-8.13-5.53-11.87-7.86-17.9-2.32-6.02.49-9.58,4.8-11.79,4.3-2.22,11.18-.25,13.76-2.46-17.41-3.71-33.74,4.49-47.65,18.8-3.29,3.38-6.44,7.1-9.43,11.09-15.67,20.87-35.65,59.85-40.45,67.59Z"/>
      <path class="cls-8" d="m219.58,119.4c-3.05,10.04-5.48,16.3-15.76,25.73-10.28,9.43-20.36,14.65-31.23,20.05-10.86,5.41-24.77,15.55-31.99,19.72-7.21,4.16-17.09,7.72-20.14,5.4-4.31-3.28-1.88-11.18,8.13-29.47,9.52-17.41,15.03-25.21,29-39.72,13.97-14.51,26.67-21.13,26.67-21.13,0,0,12.36,1.19,22.39,6.98,10.03,5.79,12.93,12.44,12.93,12.44Z"/>
      <path class="cls-9" d="m190.49,106.23c.67-.05,1.28-.22,1.8-.52-2.88,5.04,2.31,9.81,7.13,7.03-1.8,3.94,2.83,8.48,9.59,2.09-1.54,5.13,1.35,9.2,7.49,5.65-1.47,9.58,7.38,15.23,7.38,15.23.2-.41.4-.82.58-1.21,1.39-2.9,2.5-5.69,2.86-10.09.13-1.43.16-3.02.11-4.85-.25-8.13-5.53-11.87-7.86-17.9-2.32-6.02.49-9.58,4.8-11.79,4.3-2.22,11.18-.25,13.76-2.46,2.58-2.22.37-7.5-4.05-10.32-4.42-2.82-9.96-5.75-16.48-5.75-13.39,0-19.96,10.87-24.48,18.53-2.14,3.64-5.34,7.12-8.02,9.27-4.37,3.49,1.34,7.39,5.38,7.07Z"/>
      <g>
        <path class="cls-7" d="m311.46,183.38c11.05,11.75,15.84,15.29,26.03,24,10.19,8.71,23.17,16.95,31.58,23.21,8.41,6.25-13.19,6.26-49.2-21.62,20.77,19.68,24.06,24.78,18.1,24.34-5.96-.44-25.16-11.7-35.76-22.63,13.68,15.82,14,19.63,3.56,15.7-10.24-3.86-24.18-18.45-32.09-26.72,14.37,16.59,15.67,21.11,9.33,18.63-6.34-2.48-20.75-16.64-32.67-34.7,9.17,17.25,15.44,27.39,9.17,23.65-6.27-3.73-20.52-23.98-26-34.5,7.11,18.53,11.53,24.71,6.9,23-4.64-1.71-14.73-17.14-20.17-31.95,2.79,11.53,9.71,29.03,3.65,22.77-7.23-7.46-11.17-21.18-14.22-30.63.69,12.87,2.55,25.92-2.16,18.19-4.07-6.69-4.73-23.63-4.73-23.63,0,0-3.35,15.49-5.45,10.28-1.65-4.08-.7-21.09,5.45-28.17l108.67,50.76Z"/>
        <path class="cls-9" d="m284.07,157.5c10.39,7.13,31.17,22.97,28.28,25.42-2.88,2.45-15.21-2.23-20.86-5.52,5.19,6.43-6.92,7.19-20.98-3.71-.62,6.22-11.79,1.85-21.53-7.02-6.77,3.91-15.15-5.75-15.15-5.75,0,0-1.51,4.58-9.96-.72-8.45-5.3-18.24-15.78-21.1-27.59l81.28,24.88Z"/>
        <path class="cls-8" d="m216.5,120.48c-1.79,5.13-.02,8.97,13.96,10.18,13.97,1.21,27.65,4.43,37.87,11.91,10.21,7.48,18.93,14.47,14.62,16.64-4.3,2.18-21.32,5.7-32.95-5.45.73,6.96-10.97,4.58-15.79-2.79-.36,4.98-10.22,3.86-16.9-1.12-6.69-4.98-12.4-9.96-14.51-17.24,0,0,1.23-8.27,13.71-12.13Z"/>
        <path class="cls-9" d="m242.84,168.11c.21,1.28.77,2.51,1.25,3.72.57,1.44,1.19,2.86,1.85,4.27.65,1.38,1.32,2.74,2.04,4.08.31.58.63,1.16.95,1.74.25.45.48.92.96,1.16.12.06.17-.12.17-.2-.05-.66-.42-1.16-.73-1.72-.31-.56-.62-1.12-.92-1.69-.66-1.26-1.3-2.54-1.9-3.83-.63-1.34-1.25-2.7-1.84-4.06-.53-1.21-.93-2.51-1.58-3.66-.12-.21-.26.08-.24.2Zm16.67,8.26c1.38,3.7,3.46,7.13,5.49,10.5,1.19,1.97,2.41,3.92,3.67,5.85.6.92,1.21,1.84,1.83,2.75.66.97,1.3,1.96,2.18,2.74.11.1.16-.13.13-.2-.86-2.06-2.36-3.9-3.58-5.77-1.23-1.9-2.44-3.81-3.61-5.75-2.05-3.39-3.91-6.89-5.91-10.32-.1-.17-.24.08-.2.2Zm18.91,4.43c1.19,2.31,2.69,4.44,4.17,6.57,2.75,3.95,5.68,7.78,8.72,11.52,3.04,3.76,6.12,7.51,9.62,10.85.1.09.14-.14.09-.21-1.74-2.17-3.54-4.27-5.34-6.39-3.1-3.65-6.11-7.39-8.98-11.22-1.41-1.88-2.79-3.79-4.14-5.71-1.32-1.89-2.56-3.85-3.96-5.69-.12-.16-.23.17-.18.27Zm20.06,7.44c3.1,3.52,6.37,6.89,9.7,10.19,1.65,1.64,3.31,3.26,4.97,4.87,1.63,1.58,3.2,3.34,5.03,4.69.16.12.24-.25.17-.35-.81-1.03-1.77-1.9-2.7-2.81-.95-.92-1.91-1.85-2.86-2.77-3.37-3.28-6.71-6.58-9.95-10-1.6-1.68-3.18-3.38-4.73-5.12-1.47-1.66-2.81-3.47-4.37-5.05-.14-.14-.25.17-.18.27,1.36,2.18,3.22,4.13,4.92,6.06Zm-90-41.79c.08,1.45.15,2.91.31,4.36.08.71.16,1.42.25,2.13.1.75.14,1.59.4,2.3.05.15.18.04.18-.07,0-.82-.16-1.66-.26-2.47-.09-.71-.17-1.42-.24-2.13-.15-1.38-.33-2.75-.49-4.13-.02-.15-.16-.13-.15.01Zm-5.78,3.08c0,.09.12.18.15.05.77-3.13.96-6.37,1.68-9.52.05-.2-.17-.29-.25-.09-1.11,3.01-1.64,6.34-1.59,9.55Zm15.26,6.89c-.02.61.12,1.22.26,1.81.14.59.3,1.18.47,1.76.33,1.11.65,2.24,1.26,3.23.08.13.15-.07.14-.14-.23-1.18-.62-2.31-.95-3.47-.17-.59-.34-1.17-.49-1.76-.14-.52-.25-1.08-.53-1.54-.07-.11-.15.03-.16.1Zm12.29,7.63c.24,1.48.78,2.91,1.29,4.32.25.7.52,1.38.78,2.07.25.65.42,1.29.87,1.82.07.08.13-.02.13-.1-.02-.35-.04-.65-.16-.99-.12-.35-.25-.69-.38-1.03-.26-.69-.51-1.38-.78-2.07-.54-1.37-1-2.79-1.61-4.13-.07-.15-.16.01-.15.11Z"/>
      </g>
      <path class="cls-7" d="m223.89,97.54c.74-1.76.51-4.11,2.2-5.6s4.04,1.46,4.04,1.46c-.27.97.04,3.32-1.73,4.83-1.78,1.51-3.59-.37-4.51-.7Z"/>
      <g>
        <path class="cls-8" d="m140.6,184.9c-9.19,8-15.32,17.09-23.8,45.69-8.48,28.6-15.93,60.46-17.89,65.46-1.96,5-3.04.82,0-14.15,3.04-14.97,6.63-29.29,6.63-29.29,0,0-6.63,4.05-1.92-20.54-2.95,3.27-5.03-6.69-1.32-17.82-4.66,6.87-10.97,1.67-3.57-10.55-9.37,8.59-21.98,8.4-16.01.91-9.64,7.9-26.64,11.61-22.6,4.07-22.28,12.09-42.22,27.07-47.87,30.96-5.64,3.88-8.54,2.58-1.18-4.06,7.36-6.64,30.58-23.78,53.88-36.25,23.3-12.46,56.13-23.47,56.13-23.47l19.52,9.05Z"/>
        <path class="cls-9" d="m102.66,213.31c-.09.25.16.38.3.16,1.51-2.47,2.76-5.08,4.29-7.54,5.37-8.64,12.14-16.25,19.4-23.34.08-.08.02-.34-.1-.24-2.11,1.9-4.14,3.88-6.1,5.93-3.64,3.78-7.06,7.78-10.14,12.03-1.47,2.04-2.87,4.13-4.17,6.28-1.29,2.14-2.66,4.36-3.48,6.72Zm6.35,24.67c-1.22,4.23-2.38,8.46-3.16,12.8-.05.29.28.29.36.05,1.43-4.86,2.72-9.76,4.15-14.63,2.74-9.29,5.87-18.48,9.59-27.42,3.59-8.62,7.69-17.07,13.02-24.76.08-.12-.04-.42-.17-.25-3.06,4.1-5.66,8.51-8.03,13.04-4.59,8.77-8.26,18.02-11.44,27.39-1.55,4.56-2.98,9.16-4.31,13.79Zm.66-23.8c-2.31,5.3-4.48,10.71-5.72,16.37-.04.18.14.34.22.12,1.01-3,2.05-6.01,3.15-8.97,4.02-10.77,9.11-21.1,15.48-30.68.04-.06-.03-.25-.1-.17-1.86,2.29-3.44,4.82-4.95,7.35-3.06,5.13-5.7,10.5-8.09,15.97Zm-9.92-12.09c-.06.07.01.32.12.22,1.85-1.89,3.55-3.93,5.35-5.87,1.53-1.64,3.09-3.25,4.7-4.82,3.14-3.04,6.46-5.89,9.84-8.65.05-.04,0-.19-.06-.14-3.56,2.56-6.91,5.38-10.06,8.43-1.67,1.62-3.29,3.29-4.86,5-1.74,1.88-3.49,3.77-5.03,5.83Zm-16.46,1.65c-.09.08-.05.37.1.28,3.12-1.97,6-4.35,8.99-6.5,4.57-3.29,9.23-6.45,13.99-9.45,4.76-3.01,9.66-5.77,14.57-8.54.08-.04.03-.25-.06-.2-2.82,1.42-5.58,2.95-8.31,4.52-4.76,2.74-9.42,5.67-13.97,8.76-2.48,1.68-4.93,3.4-7.36,5.15-2.69,1.93-5.45,3.82-7.95,5.99Zm-21.99,4.11c3.15-1.95,6.2-4.04,9.37-5.95,12.91-7.78,26.67-14.05,40.42-20.19.09-.04.04-.26-.06-.22-3.91,1.58-7.79,3.24-11.63,4.99-6.9,3.16-13.73,6.49-20.4,10.11-3.16,1.72-6.28,3.5-9.35,5.37-2.89,1.77-5.78,3.57-8.4,5.72-.05.04-.01.2.06.16Z"/>
      </g>
    </g>
  </g>
</svg>